<svg width="110" height="156" viewBox="0 0 110 156" fill="none" xmlns="http://www.w3.org/2000/svg">
<path d="M0.5 55C0.5 24.9005 24.9005 0.5 55 0.5C85.0995 0.5 109.5 24.9005 109.5 55V141.935C109.5 148.07 103.082 152.09 97.5624 149.414C94.9969 148.17 92.0031 148.17 89.4376 149.414L84.4691 151.823C79.6766 154.147 74.1475 154.431 69.1421 152.611L65.1997 151.177C58.6048 148.779 51.3846 148.728 44.7567 151.034L40.0801 152.66C34.8962 154.463 29.2243 154.255 24.1866 152.077L16.9412 148.943C14.7571 147.999 12.2528 148.158 10.2057 149.371C5.92049 151.91 0.5 148.822 0.5 143.841V55Z" fill="#ADB7AE"/>
<path d="M0.5 55C0.5 24.9005 24.9005 0.5 55 0.5C85.0995 0.5 109.5 24.9005 109.5 55V141.935C109.5 148.07 103.082 152.09 97.5624 149.414C94.9969 148.17 92.0031 148.17 89.4376 149.414L84.4691 151.823C79.6766 154.147 74.1475 154.431 69.1421 152.611L65.1997 151.177C58.6048 148.779 51.3846 148.728 44.7567 151.034L40.0801 152.66C34.8962 154.463 29.2243 154.255 24.1866 152.077L16.9412 148.943C14.7571 147.999 12.2528 148.158 10.2057 149.371C5.92049 151.91 0.5 148.822 0.5 143.841V55Z" fill="white" fill-opacity="0.81"/>
<path d="M0.5 55C0.5 24.9005 24.9005 0.5 55 0.5C85.0995 0.5 109.5 24.9005 109.5 55V141.935C109.5 148.07 103.082 152.09 97.5624 149.414C94.9969 148.17 92.0031 148.17 89.4376 149.414L84.4691 151.823C79.6766 154.147 74.1475 154.431 69.1421 152.611L65.1997 151.177C58.6048 148.779 51.3846 148.728 44.7567 151.034L40.0801 152.66C34.8962 154.463 29.2243 154.255 24.1866 152.077L16.9412 148.943C14.7571 147.999 12.2528 148.158 10.2057 149.371C5.92049 151.91 0.5 148.822 0.5 143.841V55Z" stroke="#383333"/>
<ellipse cx="42.5" cy="41" rx="3.5" ry="5" fill="#FF0000"/>
<ellipse cx="68.5" cy="41" rx="3.5" ry="5" fill="#FF0000"/>
<path d="M48.5 53H63" stroke="#FF0000"/>
<ellipse cx="42.5" cy="41" rx="3.5" ry="5" fill="#00FF47"/>
<ellipse cx="68.5" cy="41" rx="3.5" ry="5" fill="#00FF47"/>
<path d="M62.5 56.5L62.092 56.3096C57.6118 54.2189 52.4221 54.289 48 56.5V56.5" stroke="#00FF47"/>
<path d="M42.5 46.5C44.433 46.5 46 44.2614 46 41.5C46 40.9774 45.9439 40.4735 45.8398 40L40.0005 38C39.3816 38.9019 39 40.1373 39 41.5C39 44.2614 40.567 46.5 42.5 46.5Z" fill="#FF0099"/>
<path d="M68.5 46.5C66.567 46.5 65 44.2614 65 41.5C65 40.9774 65.0561 40.4735 65.1602 40L70.9995 38C71.6184 38.9019 72 40.1373 72 41.5C72 44.2614 70.433 46.5 68.5 46.5Z" fill="#FF0099"/>
<path d="M63.5 58.5L63.092 58.3096C58.6118 56.2189 53.4221 56.289 49 58.5V58.5" stroke="#FF0099"/>
<path d="M48 53H62.5" stroke="#FF8A00"/>
<path d="M42.5 46.5C44.433 46.5 46 44.2614 46 41.5C46 40.3744 45.7396 39.3357 45.3003 38.5L40.0005 38C39.3816 38.9019 39 40.1373 39 41.5C39 44.2614 40.567 46.5 42.5 46.5Z" fill="#FF8A00"/>
<path d="M68.5 46.5C66.567 46.5 65 44.2614 65 41.5C65 40.3744 65.2604 39.3357 65.6997 38.5L70.9995 38C71.6184 38.9019 72 40.1373 72 41.5C72 44.2614 70.433 46.5 68.5 46.5Z" fill="#FF8A00"/>
<path d="M42.5 46.5C44.433 46.5 46 44.2614 46 41.5C46 40.3744 45.7396 39.3357 45.3003 38.5L40.0005 38C39.3816 38.9019 39 40.1373 39 41.5C39 44.2614 40.567 46.5 42.5 46.5Z" fill="#FAFF00"/>
<path d="M68.5 46.5C66.567 46.5 65 44.2614 65 41.5C65 40.3744 65.2604 39.3357 65.6997 38.5L70.9995 38C71.6184 38.9019 72 40.1373 72 41.5C72 44.2614 70.433 46.5 68.5 46.5Z" fill="#FAFF00"/>
<path d="M50 50V50C52.1268 53.3421 56.0846 55.1024 60 54.5V54.5" stroke="#FAFF00" stroke-linecap="round" stroke-linejoin="round"/>
<path d="M0.5 55C0.5 24.9005 24.9005 0.5 55 0.5C85.0995 0.5 109.5 24.9005 109.5 55V141.935C109.5 148.07 103.082 152.09 97.5624 149.414C94.9969 148.17 92.0031 148.17 89.4376 149.414L84.4691 151.823C79.6766 154.147 74.1475 154.431 69.1421 152.611L65.1997 151.177C58.6048 148.779 51.3846 148.728 44.7567 151.034L40.0801 152.66C34.8962 154.463 29.2243 154.255 24.1866 152.077L16.9412 148.943C14.7571 147.999 12.2528 148.158 10.2057 149.371C5.92049 151.91 0.5 148.822 0.5 143.841V55Z" fill="#ADB7AE"/>
<path d="M0.5 55C0.5 24.9005 24.9005 0.5 55 0.5C85.0995 0.5 109.5 24.9005 109.5 55V141.935C109.5 148.07 103.082 152.09 97.5624 149.414C94.9969 148.17 92.0031 148.17 89.4376 149.414L84.4691 151.823C79.6766 154.147 74.1475 154.431 69.1421 152.611L65.1997 151.177C58.6048 148.779 51.3846 148.728 44.7567 151.034L40.0801 152.66C34.8962 154.463 29.2243 154.255 24.1866 152.077L16.9412 148.943C14.7571 147.999 12.2528 148.158 10.2057 149.371C5.92049 151.91 0.5 148.822 0.5 143.841V55Z" fill="white" fill-opacity="0.81"/>
<path d="M0.5 55C0.5 24.9005 24.9005 0.5 55 0.5C85.0995 0.5 109.5 24.9005 109.5 55V141.935C109.5 148.07 103.082 152.09 97.5624 149.414C94.9969 148.17 92.0031 148.17 89.4376 149.414L84.4691 151.823C79.6766 154.147 74.1475 154.431 69.1421 152.611L65.1997 151.177C58.6048 148.779 51.3846 148.728 44.7567 151.034L40.0801 152.66C34.8962 154.463 29.2243 154.255 24.1866 152.077L16.9412 148.943C14.7571 147.999 12.2528 148.158 10.2057 149.371C5.92049 151.91 0.5 148.822 0.5 143.841V55Z" stroke="#383333"/>
</svg>
