<svg id="actualGhost" width="20vw" viewBox="0 0 110 156" fill="none" xmlns="http://www.w3.org/2000/svg">
<g class="ghostBody">
<path class="ghostBody" d="M0.5 55C0.5 24.9005 24.9005 0.5 55 0.5C85.0995 0.5 109.5 24.9005 109.5 55V141.935C109.5 148.07 103.082 152.09 97.5624 149.414C94.9969 148.17 92.0031 148.17 89.4376 149.414L84.4691 151.823C79.6766 154.147 74.1475 154.431 69.1421 152.611L65.1997 151.177C58.6048 148.779 51.3846 148.728 44.7567 151.034L40.0801 152.66C34.8962 154.463 29.2243 154.255 24.1866 152.077L16.9412 148.943C14.7571 147.999 12.2528 148.158 10.2057 149.371C5.92049 151.91 0.5 148.822 0.5 143.841V55Z" fill="#ADB7AE"/>
<path class="ghostBody" d="M0.5 55C0.5 24.9005 24.9005 0.5 55 0.5C85.0995 0.5 109.5 24.9005 109.5 55V141.935C109.5 148.07 103.082 152.09 97.5624 149.414C94.9969 148.17 92.0031 148.17 89.4376 149.414L84.4691 151.823C79.6766 154.147 74.1475 154.431 69.1421 152.611L65.1997 151.177C58.6048 148.779 51.3846 148.728 44.7567 151.034L40.0801 152.66C34.8962 154.463 29.2243 154.255 24.1866 152.077L16.9412 148.943C14.7571 147.999 12.2528 148.158 10.2057 149.371C5.92049 151.91 0.5 148.822 0.5 143.841V55Z" fill="white" fill-opacity="0.81"/>
<path class="ghostBody" d="M0.5 55C0.5 24.9005 24.9005 0.5 55 0.5C85.0995 0.5 109.5 24.9005 109.5 55V141.935C109.5 148.07 103.082 152.09 97.5624 149.414C94.9969 148.17 92.0031 148.17 89.4376 149.414L84.4691 151.823C79.6766 154.147 74.1475 154.431 69.1421 152.611L65.1997 151.177C58.6048 148.779 51.3846 148.728 44.7567 151.034L40.0801 152.66C34.8962 154.463 29.2243 154.255 24.1866 152.077L16.9412 148.943C14.7571 147.999 12.2528 148.158 10.2057 149.371C5.92049 151.91 0.5 148.822 0.5 143.841V55Z" stroke="#383333"/>
</g>
<g id="noThoughts" class="ghostFace">
<ellipse cx="42.5" cy="44" rx="3.5" ry="5" fill="#FF0000"/>
<ellipse cx="68.5" cy="44" rx="3.5" ry="5" fill="#FF0000"/>
<path d="M49 56H63.5" stroke="#FF0000"/>
</g>
<g id="sad" class="ghostFace">
<ellipse cx="42.5" cy="44" rx="3.5" ry="5" fill="#00FF47"/>
<ellipse cx="68.5" cy="44" rx="3.5" ry="5" fill="#00FF47"/>
<path d="M62.5 59.5L62.092 59.3096C57.6118 57.2189 52.4221 57.289 48 59.5V59.5" stroke="#00FF47"/>
</g>
<g id="angry" class="ghostFace">
<path d="M42.5 47.5C44.433 47.5 46 45.2614 46 42.5C46 41.9774 45.9439 41.4735 45.8398 41L40.0005 39C39.3816 39.9019 39 41.1373 39 42.5C39 45.2614 40.567 47.5 42.5 47.5Z" fill="#FF0099"/>
<path d="M68.5 47.5C66.567 47.5 65 45.2614 65 42.5C65 41.9774 65.0561 41.4735 65.1602 41L70.9995 39C71.6184 39.9019 72 41.1373 72 42.5C72 45.2614 70.433 47.5 68.5 47.5Z" fill="#FF0099"/>
<path d="M64.5 55.5L64.092 55.3096C59.6118 53.2189 54.4221 53.289 50 55.5V55.5" stroke="#FF0099"/>
</g>
<g id="meh" class="ghostFace">
<path d="M48 55H62.5" stroke="#FF8A00"/>
<path d="M42.5 48.5C44.433 48.5 46 46.2614 46 43.5C46 42.3744 45.7396 41.3357 45.3003 40.5L40.0005 40C39.3816 40.9019 39 42.1373 39 43.5C39 46.2614 40.567 48.5 42.5 48.5Z" fill="#FF8A00"/>
<path d="M68.5 48.5C66.567 48.5 65 46.2614 65 43.5C65 42.3744 65.2604 41.3357 65.6997 40.5L70.9995 40C71.6184 40.9019 72 42.1373 72 43.5C72 46.2614 70.433 48.5 68.5 48.5Z" fill="#FF8A00"/>
</g>
<g id="sly" class="ghostFace">
<path d="M42.5 48.5C44.433 48.5 46 46.2614 46 43.5C46 42.3744 45.7396 41.3357 45.3003 40.5L40.0005 40C39.3816 40.9019 39 42.1373 39 43.5C39 46.2614 40.567 48.5 42.5 48.5Z" fill="#FAFF00"/>
<path d="M68.5 48.5C66.567 48.5 65 46.2614 65 43.5C65 42.3744 65.2604 41.3357 65.6997 40.5L70.9995 40C71.6184 40.9019 72 42.1373 72 43.5C72 46.2614 70.433 48.5 68.5 48.5Z" fill="#FAFF00"/>
<path d="M50 52V52C52.1268 55.3421 56.0846 57.1024 60 56.5V56.5" stroke="#FAFF00" stroke-linecap="round" stroke-linejoin="round"/>
</g>
</svg>
