<svg id="actualGhost" width="20vw" viewBox="0 0 110 156" fill="none" xmlns="http://www.w3.org/2000/svg">
<g class="ghostBody">
<path d="M0.5 55C0.5 24.9005 24.9005 0.5 55 0.5C85.0995 0.5 109.5 24.9005 109.5 55V141.935C109.5 148.07 103.082 152.09 97.5624 149.414C94.9969 148.17 92.0031 148.17 89.4376 149.414L84.4691 151.823C79.6766 154.147 74.1475 154.431 69.1421 152.611L65.1997 151.177C58.6048 148.779 51.3846 148.728 44.7567 151.034L40.0801 152.66C34.8962 154.463 29.2243 154.255 24.1866 152.077L16.9412 148.943C14.7571 147.999 12.2528 148.158 10.2057 149.371C5.92049 151.91 0.5 148.822 0.5 143.841V55Z" fill="#ADB7AE"/>
<path d="M0.5 55C0.5 24.9005 24.9005 0.5 55 0.5C85.0995 0.5 109.5 24.9005 109.5 55V141.935C109.5 148.07 103.082 152.09 97.5624 149.414C94.9969 148.17 92.0031 148.17 89.4376 149.414L84.4691 151.823C79.6766 154.147 74.1475 154.431 69.1421 152.611L65.1997 151.177C58.6048 148.779 51.3846 148.728 44.7567 151.034L40.0801 152.66C34.8962 154.463 29.2243 154.255 24.1866 152.077L16.9412 148.943C14.7571 147.999 12.2528 148.158 10.2057 149.371C5.92049 151.91 0.5 148.822 0.5 143.841V55Z" fill="white" fill-opacity="0.81"/>
<path d="M0.5 55C0.5 24.9005 24.9005 0.5 55 0.5C85.0995 0.5 109.5 24.9005 109.5 55V141.935C109.5 148.07 103.082 152.09 97.5624 149.414C94.9969 148.17 92.0031 148.17 89.4376 149.414L84.4691 151.823C79.6766 154.147 74.1475 154.431 69.1421 152.611L65.1997 151.177C58.6048 148.779 51.3846 148.728 44.7567 151.034L40.0801 152.66C34.8962 154.463 29.2243 154.255 24.1866 152.077L16.9412 148.943C14.7571 147.999 12.2528 148.158 10.2057 149.371C5.92049 151.91 0.5 148.822 0.5 143.841V55Z" stroke="#383333"/>
</g>
<g id="noThoughts" class="ghostFace">
<ellipse cx="41.5" cy="43" rx="3.5" ry="5" fill="#383333"/>
<ellipse cx="67.5" cy="43" rx="3.5" ry="5" fill="#383333"/>
<path d="M48 55H62.5" stroke="#383333"/>
</g>
<g id="sad" class="ghostFace">
<ellipse cx="41.5" cy="43" rx="3.5" ry="5" fill="#383333"/>
<ellipse cx="67.5" cy="43" rx="3.5" ry="5" fill="#383333"/>
<path d="M61.5 55.5L61.092 55.3096C56.6118 53.2189 51.4221 53.289 47 55.5V55.5" stroke="#383333"/>
</g>
<g id="angry" class="ghostFace">
<path d="M41.5 48.5C43.433 48.5 45 46.2614 45 43.5C45 42.9774 44.9439 42.4735 44.8398 42L39.0005 40C38.3816 40.9019 38 42.1373 38 43.5C38 46.2614 39.567 48.5 41.5 48.5Z" fill="#383333"/>
<path d="M67.5 48.5C65.567 48.5 64 46.2614 64 43.5C64 42.9774 64.0561 42.4735 64.1602 42L69.9995 40C70.6184 40.9019 71 42.1373 71 43.5C71 46.2614 69.433 48.5 67.5 48.5Z" fill="#383333"/>
<path d="M62.5 56.5L62.092 56.3096C57.6118 54.2189 52.4221 54.289 48 56.5V56.5" stroke="#383333"/>
</g>
<g id="meh" class="ghostFace">
<path d="M47 55H61.5" stroke="#383333"/>
<path d="M41.5 48.5C43.433 48.5 45 46.2614 45 43.5C45 42.3744 44.7396 41.3357 44.3003 40.5L39.0005 40C38.3816 40.9019 38 42.1373 38 43.5C38 46.2614 39.567 48.5 41.5 48.5Z" fill="#383333"/>
<path d="M67.5 48.5C65.567 48.5 64 46.2614 64 43.5C64 42.3744 64.2604 41.3357 64.6997 40.5L69.9995 40C70.6184 40.9019 71 42.1373 71 43.5C71 46.2614 69.433 48.5 67.5 48.5Z" fill="#383333"/>
</g>
<g id="sly" class="ghostFace">
<path d="M41.5 48.5C43.433 48.5 45 46.2614 45 43.5C45 42.3744 44.7396 41.3357 44.3003 40.5L39.0005 40C38.3816 40.9019 38 42.1373 38 43.5C38 46.2614 39.567 48.5 41.5 48.5Z" fill="#383333"/>
<path d="M67.5 48.5C65.567 48.5 64 46.2614 64 43.5C64 42.3744 64.2604 41.3357 64.6997 40.5L69.9995 40C70.6184 40.9019 71 42.1373 71 43.5C71 46.2614 69.433 48.5 67.5 48.5Z" fill="#383333"/>
<path d="M49 52V52C51.1268 55.3421 55.0846 57.1024 59 56.5V56.5" stroke="#383333" stroke-linecap="round" stroke-linejoin="round"/>
</g>
<g id="closed-eye-smile" class="ghostFace">
<path d="M47 50L47.408 50.1904C51.8882 52.2811 57.0779 52.211 61.5 50V50" stroke="#383333"/>
<path d="M41.5 38C43.433 38 45 40.2386 45 43C45 43.5226 44.9439 44.0265 44.8398 44.5L39.0005 46.5C38.3816 45.5981 38 44.3627 38 43C38 40.2386 39.567 38 41.5 38Z" fill="#383333"/>
<path d="M67.5 38C65.567 38 64 40.2386 64 43C64 43.5226 64.0561 44.0265 64.1602 44.5L69.9995 46.5C70.6184 45.5981 71 44.3627 71 43C71 40.2386 69.433 38 67.5 38Z" fill="#383333"/>
</g>
<g class="ghostFace">
<path d="M41.5 48.5C43.433 48.5 45 46.2614 45 43.5C45 42.9774 44.9439 42.4735 44.8398 42L39.0005 40C38.3816 40.9019 38 42.1373 38 43.5C38 46.2614 39.567 48.5 41.5 48.5Z" fill="#383333"/>
<path d="M67.5 48.5C65.567 48.5 64 46.2614 64 43.5C64 42.9774 64.0561 42.4735 64.1602 42L69.9995 40C70.6184 40.9019 71 42.1373 71 43.5C71 46.2614 69.433 48.5 67.5 48.5Z" fill="#383333"/>
<circle cx="55" cy="55" r="5" fill="#383333"/>
</g>
<g class="ghostFace">
<ellipse cx="41.5" cy="43" rx="3.5" ry="5" fill="#383333"/>
<ellipse cx="67.5" cy="43" rx="3.5" ry="5" fill="#383333"/>
<path d="M47.5 55L47.908 55.1904C52.3882 57.2811 57.5779 57.211 62 55V55" stroke="#383333"/>
</g>
<g class="ghostFace">
<ellipse cx="41.5" cy="43" rx="3.5" ry="5" fill="#383333"/>
<ellipse cx="67.5" cy="43" rx="3.5" ry="5" fill="#383333"/>
<circle cx="54" cy="55" r="5" fill="#383333"/>
</g>
<g class="ghostFace">
<circle cx="54" cy="55" r="5" fill="#383333"/>
<path d="M67.5 48.5C69.433 48.5 71 46.2614 71 43.5C71 42.9774 70.9439 42.4735 70.8398 42L65.0005 40C64.3816 40.9019 64 42.1373 64 43.5C64 46.2614 65.567 48.5 67.5 48.5Z" fill="#383333"/>
<path d="M41.5 48.5C39.567 48.5 38 46.2614 38 43.5C38 42.9774 38.0561 42.4735 38.1602 42L43.9995 40C44.6184 40.9019 45 42.1373 45 43.5C45 46.2614 43.433 48.5 41.5 48.5Z" fill="#383333"/>
</g>
<g class="ghostFace">
<path d="M61.5 55.5L61.092 55.3096C56.6118 53.2189 51.4221 53.289 47 55.5V55.5" stroke="black"/>
<path d="M67.5 48.5C69.433 48.5 71 46.2614 71 43.5C71 42.9774 70.9439 42.4735 70.8398 42L65.0005 40C64.3816 40.9019 64 42.1373 64 43.5C64 46.2614 65.567 48.5 67.5 48.5Z" fill="#383333"/>
<path d="M41.5 48.5C39.567 48.5 38 46.2614 38 43.5C38 42.9774 38.0561 42.4735 38.1602 42L43.9995 40C44.6184 40.9019 45 42.1373 45 43.5C45 46.2614 43.433 48.5 41.5 48.5Z" fill="#383333"/>
<g class="ghostFace">
<ellipse cx="54.25" cy="55" rx="7.25" ry="5" fill="#383333"/>
<ellipse cx="41.5" cy="43" rx="3.5" ry="5" fill="#383333"/>
<ellipse cx="67.5" cy="43" rx="3.5" ry="5" fill="#383333"/>
</g>
<g class="ghostFace">
<path d="M45 45.5C45 42.7386 43.433 42 41.5 42C39.567 42 38 42.7386 38 45.5" stroke="#383333"/>
<path d="M71 45.5C71 42.7386 69.433 42 67.5 42C65.567 42 64 42.7386 64 45.5" stroke="#383333"/>
<path d="M47 51L47.408 51.1904C51.8882 53.2811 57.0779 53.211 61.5 51V51" stroke="black"/>
</g>
</svg>
