<svg width="110" height="156" viewBox="0 0 110 156" fill="none" xmlns="http://www.w3.org/2000/svg">
<path d="M0.5 55C0.5 24.9005 24.9005 0.5 55 0.5C85.0995 0.5 109.5 24.9005 109.5 55V141.935C109.5 148.07 103.082 152.09 97.5624 149.414C94.9969 148.17 92.0031 148.17 89.4376 149.414L84.4691 151.823C79.6766 154.147 74.1475 154.431 69.1421 152.611L65.1997 151.177C58.6048 148.779 51.3846 148.728 44.7567 151.034L40.0801 152.66C34.8962 154.463 29.2243 154.255 24.1866 152.077L16.9412 148.943C14.7571 147.999 12.2528 148.158 10.2057 149.371C5.92049 151.91 0.5 148.822 0.5 143.841V55Z" fill="#ADB7AE"/>
<path d="M0.5 55C0.5 24.9005 24.9005 0.5 55 0.5C85.0995 0.5 109.5 24.9005 109.5 55V141.935C109.5 148.07 103.082 152.09 97.5624 149.414C94.9969 148.17 92.0031 148.17 89.4376 149.414L84.4691 151.823C79.6766 154.147 74.1475 154.431 69.1421 152.611L65.1997 151.177C58.6048 148.779 51.3846 148.728 44.7567 151.034L40.0801 152.66C34.8962 154.463 29.2243 154.255 24.1866 152.077L16.9412 148.943C14.7571 147.999 12.2528 148.158 10.2057 149.371C5.92049 151.91 0.5 148.822 0.5 143.841V55Z" fill="white" fill-opacity="0.81"/>
<path d="M0.5 55C0.5 24.9005 24.9005 0.5 55 0.5C85.0995 0.5 109.5 24.9005 109.5 55V141.935C109.5 148.07 103.082 152.09 97.5624 149.414C94.9969 148.17 92.0031 148.17 89.4376 149.414L84.4691 151.823C79.6766 154.147 74.1475 154.431 69.1421 152.611L65.1997 151.177C58.6048 148.779 51.3846 148.728 44.7567 151.034L40.0801 152.66C34.8962 154.463 29.2243 154.255 24.1866 152.077L16.9412 148.943C14.7571 147.999 12.2528 148.158 10.2057 149.371C5.92049 151.91 0.5 148.822 0.5 143.841V55Z" stroke="#383333"/>
</svg>
