<svg viewBox="0 0 1170 389" fill="none" xmlns="http://www.w3.org/2000/svg">
<path d="M1 142.443C1 140.31 2.35362 138.412 4.37054 137.716L157.597 84.8974C161.192 83.6582 165.066 83.4695 168.764 84.3534L393.621 138.094C395.792 138.613 398.036 138.765 400.258 138.543L686.908 109.911C688.912 109.71 690.934 109.814 692.906 110.218L953.304 163.51C955.396 163.938 957.544 164.029 959.665 163.777L1164.41 139.54C1167.39 139.188 1170 141.511 1170 144.505V389H1V142.443Z" fill="#9497A3"/>
<path d="M110.206 243.973L108.051 168.968C108.033 168.367 108.033 167.798 108.057 167.199C108.327 160.483 110.469 116.444 120.874 94.6854C126.46 83.0057 134.362 67.3809 138.756 61.3765L138.507 56.2728L132.766 56.5521L132.486 50.8104L138.228 50.5311L137.887 43.5135L144.266 43.2031L144.608 50.2207L150.349 49.9414L150.629 55.6831L144.887 55.9624L145.135 61.0661C151.366 67.0612 165.643 83.3589 172.056 94.9512C183.825 116.223 190.688 158.072 192.033 166.86C192.204 167.975 192.294 169.066 192.327 170.188L194.46 244.411L110.206 243.973Z" fill="#CCD0D0"/>
<path d="M880.249 181.346L903.756 289.919L1014.49 265.945L991.132 158.071C990.915 157.069 990.66 156.118 990.334 155.146C986.952 145.067 965.94 83.9956 944.087 55.8713C928.777 36.1672 901.04 17.1731 901.04 17.1731C901.04 17.1731 882.389 45.4102 876.82 70.435C868.995 105.602 878.715 171.683 879.949 179.732C880.032 180.274 880.133 180.81 880.249 181.346Z" fill="#CCD0D0"/>
<path d="M1016.1 48.378L1013.6 141.782L1101.9 144.146L1104.4 50.742C1104.4 50.742 1105.68 3.04631 1062.1 1.87962C1018.53 0.712938 1016.1 48.378 1016.1 48.378Z" fill="#CCD0D0"/>
<path d="M0 154.182C0 151.059 2.83104 148.701 5.90265 149.264L126.791 171.453C130.611 172.154 134.542 171.955 138.272 170.873L308.179 121.562C311.722 120.533 315.45 120.302 319.093 120.885L485.945 147.558C488.526 147.971 491.155 147.976 493.738 147.574L662.456 121.299C667.869 120.457 673.408 121.414 678.223 124.026L838.297 210.849C839.87 211.703 841.779 211.65 843.303 210.712L982.735 124.843C987.811 121.718 993.836 120.508 999.724 121.433L1165.78 147.517C1168.21 147.899 1170 149.995 1170 152.457V389H0V154.182Z" fill="#6B6D75"/>
<path d="M291.242 195.12L315.993 287.156L435.739 254.953L411.223 163.793C410.885 162.537 410.479 161.334 409.967 160.14C405.689 150.17 383.741 100.645 360.76 78.7854C344.322 63.1486 314.455 49.3973 314.455 49.3973C314.455 49.3973 294.162 75.9408 288.018 98.3481C279.497 129.425 289.284 185.04 290.783 193.121C290.911 193.806 291.061 194.447 291.242 195.12Z" fill="#BABCBC"/>
<path d="M602 106.362V237H733V106.29C733 102.252 732.207 98.2859 730.485 94.6332C722.395 77.4666 695.934 26.2708 667.985 26.0011C639.802 25.7291 612.831 77.2705 604.571 94.5803C602.812 98.2666 602 102.277 602 106.362Z" fill="#BABCBC"/>
<path d="M0 267.318C0 263.894 3.36274 261.484 6.60495 262.582L99.2307 293.976C108.207 297.018 118.132 294.723 124.862 288.048L203.29 210.251C207.973 205.606 214.301 203 220.896 203H339.236C341.862 203 344.472 203.414 346.97 204.226L510.874 257.544C516.435 259.353 522.454 259.156 527.884 256.986L661.319 203.672C662.405 203.238 663.609 203.198 664.721 203.56L831.405 257.782C836.518 259.445 842.032 259.416 847.127 257.697L1009.32 203L1167.56 297.486C1169.07 298.388 1170 300.019 1170 301.779V389H0V267.318Z" fill="#434448"/>
<path d="M355 197.042V344H518V197.042C518 197.042 518 122 437.558 122C357.117 122 355 197.042 355 197.042Z" fill="#525559"/>
<path d="M63 282.27V359H177V283.298C177 281.822 176.893 280.354 176.651 278.898C174.988 268.903 167.333 227.076 152.495 205.676C141.634 190.012 118.402 173 118.402 173C118.402 173 94.0475 189.467 83.243 205.676C68.5027 227.788 63.8215 272.163 63.1028 279.913C63.0297 280.702 63 281.478 63 282.27Z" fill="#525559"/>
<path d="M673 189.324V348H885V189.236C885 184.06 883.693 179.009 880.946 174.622C867.873 153.739 825.033 91.33 779.785 91.0013C734.147 90.6698 690.474 153.525 677.136 174.57C674.336 178.989 673 184.093 673 189.324Z" fill="#525559"/>
<path d="M934.16 167.399L937.767 210.328L994.126 205.592L1007.85 368.959L1048.03 365.583L1034.3 202.216L1092.34 197.34L1088.73 154.412L1030.7 159.288L1025.54 97.8763L985.359 101.252L990.519 162.664L934.16 167.399Z" fill="#525559" stroke="#525559"/>
<path d="M1170 389V323.529H868.92L644.28 283L511.68 323.529L346.32 283L218.4 323.529L101.4 283L0 323.529V389H1170Z" fill="black"/>
</svg>
