<svg width="110" height="156" viewBox="0 0 110 156" fill="none" xmlns="http://www.w3.org/2000/svg">
<path d="M49 61H63.5" stroke="black"/>
<path d="M43.5 54.5C45.433 54.5 47 52.2614 47 49.5C47 48.3744 46.7396 47.3357 46.3003 46.5L41.0005 46C40.3816 46.9019 40 48.1373 40 49.5C40 52.2614 41.567 54.5 43.5 54.5Z" fill="#383333"/>
<path d="M69.5 54.5C67.567 54.5 66 52.2614 66 49.5C66 48.3744 66.2604 47.3357 66.6997 46.5L71.9995 46C72.6184 46.9019 73 48.1373 73 49.5C73 52.2614 71.433 54.5 69.5 54.5Z" fill="#383333"/>
</svg>
