<svg width="110" height="156" viewBox="0 0 110 156" fill="none" xmlns="http://www.w3.org/2000/svg">
<path d="M42.5 52.5C44.433 52.5 46 50.2614 46 47.5C46 46.3744 45.7396 45.3357 45.3003 44.5L40.0005 44C39.3816 44.9019 39 46.1373 39 47.5C39 50.2614 40.567 52.5 42.5 52.5Z" fill="#383333"/>
<path d="M68.5 52.5C66.567 52.5 65 50.2614 65 47.5C65 46.3744 65.2604 45.3357 65.6997 44.5L70.9995 44C71.6184 44.9019 72 46.1373 72 47.5C72 50.2614 70.433 52.5 68.5 52.5Z" fill="#383333"/>
<path d="M50 56V56C52.1268 59.3421 56.0846 61.1024 60 60.5V60.5" stroke="black" stroke-linecap="round" stroke-linejoin="round"/>
</svg>
